<svg width="82" height="70" viewBox="0 0 82 70" fill="none" xmlns="http://www.w3.org/2000/svg">
<path d="M67.3517 19.3806L34.268 13.3433C32.399 13.0072 30.473 13.4261 28.9123 14.508C27.3517 15.5899 26.2838 17.2466 25.9429 19.1148L22.2292 39.4656C21.8883 41.3337 22.3021 43.2608 23.38 44.8242C24.4579 46.3876 26.1119 47.4598 27.9791 47.8055L61.0628 53.8428C62.9318 54.1789 64.8578 53.76 66.4185 52.6781C67.9791 51.5962 69.047 49.9395 69.3879 48.0713L73.1016 27.7206C73.4425 25.8524 73.0287 23.9253 71.9508 22.3619C70.8729 20.7985 69.2189 19.7263 67.3517 19.3806ZM33.606 16.9709L66.6897 23.0082C67.5948 23.1784 68.3958 23.6999 68.9176 24.4589C69.4393 25.2179 69.6394 26.1525 69.474 27.0586L69.1066 29.0719L29.2031 21.79L29.5705 19.7767C29.7358 18.8707 30.2531 18.0669 31.0093 17.5412C31.7655 17.0154 32.6991 16.8104 33.606 16.9709ZM61.7248 50.2152L28.6411 44.1779C27.736 44.0077 26.935 43.4862 26.4132 42.7272C25.8915 41.9682 25.6914 41.0336 25.8568 40.1275L28.5411 25.4176L68.4446 32.6995L65.7603 47.4094C65.595 48.3154 65.0777 49.1192 64.3215 49.6449C63.5653 50.1707 62.6317 50.3757 61.7248 50.2152Z" fill="#373435"/>
<path d="M61.0173 42.5892L51.9483 40.9343C51.4673 40.8465 50.971 40.9534 50.5688 41.2315C50.1666 41.5095 49.8913 41.936 49.8035 42.4171C49.7157 42.8981 49.8226 43.3943 50.1007 43.7966C50.3788 44.1988 50.8053 44.4741 51.2863 44.5619L60.3553 46.2168C60.8364 46.3046 61.3326 46.1977 61.7348 45.9196C62.137 45.6415 62.4123 45.2151 62.5001 44.734C62.5879 44.253 62.481 43.7567 62.2029 43.3545C61.9248 42.9523 61.4983 42.677 61.0173 42.5892Z" fill="#373435"/>
<rect x="8" y="24" width="43" height="31" fill="white"/>
<path d="M46.315 22.0625H12.685C10.786 22.0674 8.96647 22.8252 7.62541 24.1697C6.28435 25.5142 5.53124 27.3357 5.53125 29.2347V49.9216C5.53124 51.8206 6.28435 53.642 7.62541 54.9866C8.96647 56.3311 10.786 57.0889 12.685 57.0938H46.315C48.214 57.0889 50.0335 56.3311 51.3746 54.9866C52.7156 53.642 53.4688 51.8206 53.4688 49.9216V29.2347C53.4688 27.3357 52.7156 25.5142 51.3746 24.1697C50.0335 22.8252 48.214 22.0674 46.315 22.0625ZM12.685 25.75H46.315C47.236 25.7549 48.1176 26.1242 48.7671 26.7771C49.4167 27.4301 49.7813 28.3137 49.7812 29.2347V31.2812H9.21875V29.2347C9.21874 28.3137 9.58334 27.4301 10.2329 26.7771C10.8824 26.1242 11.764 25.7549 12.685 25.75ZM46.315 53.4062H12.685C11.764 53.4014 10.8824 53.0321 10.2329 52.3791C9.58334 51.7261 9.21874 50.8426 9.21875 49.9216V34.9688H49.7812V49.9216C49.7813 50.8426 49.4167 51.7261 48.7671 52.3791C48.1176 53.0321 47.236 53.4014 46.315 53.4062Z" fill="#373435"/>
<path d="M44.25 46.0312H35.0312C34.5423 46.0312 34.0733 46.2255 33.7275 46.5713C33.3818 46.917 33.1875 47.386 33.1875 47.875C33.1875 48.364 33.3818 48.833 33.7275 49.1787C34.0733 49.5245 34.5423 49.7188 35.0312 49.7188H44.25C44.739 49.7188 45.208 49.5245 45.5537 49.1787C45.8995 48.833 46.0938 48.364 46.0938 47.875C46.0938 47.386 45.8995 46.917 45.5537 46.5713C45.208 46.2255 44.739 46.0312 44.25 46.0312Z" fill="#373435"/>
</svg>
