<svg width="77" height="77" viewBox="0 0 77 77" fill="none" xmlns="http://www.w3.org/2000/svg">
<path d="M26.0838 50.7959H44.7202C45.2563 50.7959 45.7704 50.5829 46.1495 50.2039C46.5285 49.8248 46.7415 49.3107 46.7415 48.7746L53.7797 23.0037C53.7798 22.7362 53.7267 22.4714 53.6236 22.2246C53.5205 21.9778 53.3695 21.7539 53.1793 21.5659C52.989 21.3779 52.7633 21.2295 52.5153 21.1293C52.2673 21.0292 52.0019 20.9793 51.7344 20.9824H21.1871C20.6499 20.9824 20.1345 21.195 19.7536 21.5737C19.3726 21.9524 19.157 22.4665 19.1538 23.0037L13.1382 48.7746C13.1382 49.3107 13.3511 49.8248 13.7302 50.2039C14.1093 50.5829 14.6234 50.7959 15.1594 50.7959H17.7822" stroke="#373435" stroke-width="4"/>
<path d="M50.1221 50.7959H45.9473L51.9629 29.9939H61.8526C62.0013 29.9936 62.1484 30.0257 62.2834 30.088C62.4185 30.1504 62.5384 30.2414 62.6346 30.3548L66.9418 37.9345C67.0961 38.1112 67.1816 38.3376 67.1824 38.5722L63.176 50.7959H58.8448" stroke="#373435" stroke-width="4"/>
<path d="M22.0293 56.6311C24.4944 56.6311 26.4929 54.6058 26.4929 52.1074C26.4929 49.609 24.4944 47.5836 22.0293 47.5836C19.5641 47.5836 17.5657 49.609 17.5657 52.1074C17.5657 54.6058 19.5641 56.6311 22.0293 56.6311Z" stroke="#373435" stroke-width="4"/>
<path d="M54.5617 56.6311C57.0269 56.6311 59.0253 54.6058 59.0253 52.1074C59.0253 49.609 57.0269 47.5836 54.5617 47.5836C52.0966 47.5836 50.0981 49.609 50.0981 52.1074C50.0981 54.6058 52.0966 56.6311 54.5617 56.6311Z" stroke="#373435" stroke-width="4"/>
<path d="M27.9726 26.9019H8.26538" stroke="#373435" stroke-width="4" stroke-linecap="round"/>
<path d="M24.0867 33.2063H10.1665" stroke="#373435" stroke-width="4" stroke-linecap="round"/>
<path d="M25.4942 40.3047H3.86206" stroke="#373435" stroke-width="4" stroke-linecap="round"/>
</svg>
