<svg width="48" height="48" viewBox="0 0 48 48" fill="none" xmlns="http://www.w3.org/2000/svg">
<path d="M38.768 8.22869L39.7629 11.0854C40.0691 11.9847 40.6823 12.7594 41.5038 13.2851L44.0208 14.9039C44.8658 15.4467 45.4907 16.2505 45.7912 17.1811C46.0918 18.1117 46.0498 19.1128 45.6722 20.0174L44.6774 22.3313C44.2443 23.3543 44.2443 24.4984 44.6774 25.5213L45.6722 27.7781C46.0489 28.6645 46.1026 29.6464 45.8246 30.5656C45.5467 31.4847 44.9533 32.2873 44.1402 32.844L41.9117 34.4057C41.0913 34.9639 40.4946 35.7735 40.2205 36.7006L39.4147 39.4049C39.1341 40.3544 38.5169 41.1806 37.6691 41.7419C36.8214 42.3032 35.7959 42.5644 34.7688 42.4807L32.3513 42.2902C31.2072 42.1992 30.0714 42.5411 29.1877 43.2425L26.8598 45.0422C26.0661 45.6617 25.0734 46 24.0493 46C23.0252 46 22.0325 45.6617 21.2389 45.0422L19.2492 43.4805C18.4516 42.8585 17.4526 42.5218 16.4239 42.5283H12.8822C11.8773 42.5308 10.9014 42.2059 10.1149 41.6072C9.32847 41.0084 8.77823 40.1713 8.55467 39.2335L7.91797 36.6435C7.68792 35.5754 7.03565 34.6338 6.09741 34.0153L3.94855 32.5774C3.13047 32.0483 2.52064 31.2727 2.216 30.3737C1.91137 29.4748 1.92941 28.5042 2.26727 27.6162L3.26211 25.0071C3.63017 24.0579 3.63017 23.0139 3.26211 22.0647L2.36675 19.7793C2.01891 18.8764 2.00173 17.8873 2.31803 16.9738C2.63433 16.0604 3.26535 15.2768 4.10772 14.7515L6.4655 13.2946C7.3771 12.7302 8.04215 11.8668 8.3358 10.8664L9.03219 8.46675C9.31123 7.51129 9.93017 6.67914 10.7821 6.11407C11.634 5.54901 12.6654 5.28653 13.698 5.37198L15.9264 5.5529C17.073 5.63933 18.2101 5.29813 19.1 4.60067L21.219 2.96282C22.015 2.34015 23.0114 2 24.0394 2C25.0674 2 26.0638 2.34015 26.8598 2.96282L28.7102 4.44831C29.6005 5.15174 30.7433 5.49355 31.8937 5.40055L34.2315 5.23867C35.2287 5.17671 36.2186 5.43803 37.0416 5.98049C37.8646 6.52294 38.4728 7.31492 38.768 8.22869Z" stroke="#000000" stroke-width="3"/>
<path d="M19.5 20C21.433 20 23 18.433 23 16.5C23 14.567 21.433 13 19.5 13C17.567 13 16 14.567 16 16.5C16 18.433 17.567 20 19.5 20Z" stroke="#000000" stroke-width="3"/>
<path d="M29.5 35C31.433 35 33 33.433 33 31.5C33 29.567 31.433 28 29.5 28C27.567 28 26 29.567 26 31.5C26 33.433 27.567 35 29.5 35Z" stroke="#000000" stroke-width="3"/>
<path d="M33 14L15 33" stroke="#000000" stroke-width="3"/>
</svg>
