<svg width="56" height="56" viewBox="0 0 56 56" fill="none" xmlns="http://www.w3.org/2000/svg">
<path fill-rule="evenodd" clip-rule="evenodd" d="M26.25 33.2739C25.7859 33.2739 25.3408 33.4583 25.0126 33.7865C24.6844 34.1146 24.5 34.5598 24.5 35.0239C24.5 35.4881 24.6844 35.9331 25.0126 36.2613C25.3408 36.5895 25.7859 36.7739 26.25 36.7739H43.75C44.2141 36.7739 44.6592 36.5895 44.9874 36.2613C45.3156 35.9331 45.5 35.4881 45.5 35.0239C45.5 34.5598 45.3156 34.1146 44.9874 33.7865C44.6592 33.4583 44.2141 33.2739 43.75 33.2739H26.25Z" fill="#000000"/>
<path fill-rule="evenodd" clip-rule="evenodd" d="M12.25 19.2739C11.7859 19.2739 11.3408 19.4583 11.0126 19.7865C10.6844 20.1146 10.5 20.5598 10.5 21.0239C10.5 21.4881 10.6844 21.9331 11.0126 22.2613C11.3408 22.5895 11.7859 22.7739 12.25 22.7739H29.75C30.2141 22.7739 30.6592 22.5895 30.9874 22.2613C31.3156 21.9331 31.5 21.4881 31.5 21.0239C31.5 20.5598 31.3156 20.1146 30.9874 19.7865C30.6592 19.4583 30.2141 19.2739 29.75 19.2739H12.25Z" fill="#000000"/>
<path fill-rule="evenodd" clip-rule="evenodd" d="M12.25 12.2739C11.7859 12.2739 11.3408 12.4583 11.0126 12.7865C10.6844 13.1146 10.5 13.5598 10.5 14.0239C10.5 14.4881 10.6844 14.9331 11.0126 15.2613C11.3408 15.5895 11.7859 15.7739 12.25 15.7739H29.75C30.2141 15.7739 30.6592 15.5895 30.9874 15.2613C31.3156 14.9331 31.5 14.4881 31.5 14.0239C31.5 13.5598 31.3156 13.1146 30.9874 12.7865C30.6592 12.4583 30.2141 12.2739 29.75 12.2739H12.25Z" fill="#000000"/>
<path fill-rule="evenodd" clip-rule="evenodd" d="M8.75 5.27393C5.87123 5.27393 3.5 7.64516 3.5 10.5239V35.0239C3.5 36.1858 4.26684 37.1957 5.2124 37.5874C6.15794 37.9791 7.41571 37.8074 8.2373 36.9858C8.25721 36.9647 8.27659 36.943 8.29541 36.9209L14.7759 29.7739H17.5V38.5239C17.5 41.4027 19.8712 43.7739 22.75 43.7739H41.2241L47.7046 50.9243C47.7235 50.9453 47.7428 50.9659 47.7627 50.9859C48.5842 51.8074 49.842 51.979 50.7876 51.5875C51.7332 51.196 52.5 50.1859 52.5 49.024V24.524C52.5 21.6453 50.1288 19.274 47.25 19.274H38.5V10.524C38.5 7.64527 36.1288 5.27403 33.25 5.27403L8.75 5.27393ZM8.75 8.77393H33.25C34.2372 8.77393 35 9.5367 35 10.5239V24.5239C35 25.5112 34.2372 26.2739 33.25 26.2739H14C13.756 26.274 13.5147 26.3252 13.2916 26.4241C13.0685 26.523 12.8685 26.6674 12.7046 26.8481L7 33.144V10.5239C7 9.5367 7.76277 8.77393 8.75 8.77393ZM38.5 22.7739H47.25C48.2372 22.7739 49 23.5367 49 24.5239V47.144L43.2954 40.8481C43.1315 40.6674 42.9315 40.523 42.7084 40.4241C42.4853 40.3252 42.244 40.274 42 40.2739H22.75C21.7628 40.2739 21 39.5112 21 38.5239V29.7739H33.25H43.75C44.2141 29.7739 44.6592 29.5895 44.9874 29.2613C45.3156 28.9331 45.5 28.4881 45.5 28.0239C45.5 27.5598 45.3156 27.1146 44.9874 26.7865C44.6592 26.4583 44.2141 26.2739 43.75 26.2739H38.189C38.386 25.725 38.5 25.1369 38.5 24.5239V22.7739Z" fill="#000000"/>
</svg>
