<svg width="51" height="51" viewBox="0 0 51 51" fill="none" xmlns="http://www.w3.org/2000/svg">
<g clip-path="url(#clip0_0_61)">
<path d="M25.5 6.5875C31.1313 8.18125 37.2938 10.0938 40.375 11.1562V27.8375C40.375 31.45 36.4438 37.825 25.5 44.2C14.5562 37.7188 10.625 31.45 10.625 27.8375V11.1562C13.7063 9.9875 19.8687 8.18125 25.5 6.5875ZM25.5 2.125C25.5 2.125 6.375 7.54375 6.375 8.5V27.8375C6.375 37.6125 20.5063 46.2188 24.4375 48.5563C24.752 48.7664 25.1218 48.8785 25.5 48.8785C25.8782 48.8785 26.248 48.7664 26.5625 48.5563C30.6 46.325 44.625 37.6125 44.625 27.8375V8.5C44.625 7.54375 25.5 2.125 25.5 2.125Z" fill="#373435"/>
<path d="M20.825 31.2375L15.5125 26.0313C15.1443 25.655 14.9211 25.1607 14.8822 24.6357C14.8433 24.1107 14.9913 23.5889 15.3 23.1625C15.4719 22.9065 15.7003 22.6932 15.9675 22.5391C16.2348 22.3851 16.5338 22.2943 16.8415 22.2738C17.1493 22.2533 17.4577 22.3035 17.743 22.4208C18.0284 22.538 18.283 22.7191 18.4875 22.95L22.3125 26.775L32.5125 16.575C32.9217 16.2681 33.4279 16.1191 33.9381 16.1554C34.4483 16.1916 34.9284 16.4107 35.2901 16.7724C35.6518 17.1341 35.8709 17.6142 35.9071 18.1244C35.9434 18.6346 35.7944 19.1408 35.4875 19.55L23.8 31.2375C23.6109 31.4436 23.381 31.6082 23.1249 31.7208C22.8688 31.8333 22.5922 31.8915 22.3125 31.8915C22.0327 31.8915 21.7561 31.8333 21.5 31.7208C21.2439 31.6082 21.0141 31.4436 20.825 31.2375Z" fill="#373435"/>
</g>
<defs>
<clipPath id="clip0_0_61">
<rect width="51" height="51" fill="white"/>
</clipPath>
</defs>
</svg>
