<svg width="22" height="22" viewBox="0 0 22 22" fill="none" xmlns="http://www.w3.org/2000/svg">
<g clip-path="url(#clip0_2102_1471)">
<path d="M16.4083 5.04159C16.145 4.76289 15.7831 4.59837 15.4 4.58326H14.6667V3.66659C14.6731 3.4843 14.6419 3.30264 14.575 3.13292C14.5082 2.9632 14.4071 2.80905 14.2782 2.68008C14.1492 2.5511 13.995 2.45004 13.8253 2.38321C13.6556 2.31638 13.4739 2.28519 13.2917 2.29159H2.29165C2.10936 2.28519 1.9277 2.31638 1.75798 2.38321C1.58826 2.45004 1.43412 2.5511 1.30514 2.68008C1.17616 2.80905 1.07511 2.9632 1.00827 3.13292C0.941436 3.30264 0.910249 3.4843 0.916652 3.66659V16.0416C0.910249 16.2239 0.941436 16.4055 1.00827 16.5753C1.07511 16.745 1.17616 16.8991 1.30514 17.0281C1.43412 17.1571 1.58826 17.2581 1.75798 17.325C1.9277 17.3918 2.10936 17.423 2.29165 17.4166H3.34582C3.54527 18.0758 3.95154 18.6533 4.50455 19.0637C5.05756 19.4741 5.72797 19.6957 6.41665 19.6957C7.10533 19.6957 7.77574 19.4741 8.32875 19.0637C8.88176 18.6533 9.28803 18.0758 9.48748 17.4166H12.5125C12.7119 18.0758 13.1182 18.6533 13.6712 19.0637C14.2242 19.4741 14.8946 19.6957 15.5833 19.6957C16.272 19.6957 16.9424 19.4741 17.4954 19.0637C18.0484 18.6533 18.4547 18.0758 18.6541 17.4166H19.7083C19.8906 17.423 20.0723 17.3918 20.242 17.325C20.4117 17.2581 20.5659 17.1571 20.6948 17.0281C20.8238 16.8991 20.9249 16.745 20.9917 16.5753C21.0585 16.4055 21.0897 16.2239 21.0833 16.0416V10.1749L16.4083 5.04159ZM15.1708 6.41659L18.5166 10.0833H14.6667V6.41659H15.1708ZM6.41665 17.8749C6.1447 17.8749 5.87886 17.7943 5.65274 17.6432C5.42662 17.4921 5.25039 17.2774 5.14632 17.0261C5.04225 16.7749 5.01502 16.4984 5.06807 16.2317C5.12113 15.965 5.25208 15.72 5.44438 15.5277C5.63668 15.3354 5.88168 15.2044 6.1484 15.1513C6.41513 15.0983 6.69159 15.1255 6.94284 15.2296C7.19409 15.3337 7.40884 15.5099 7.55992 15.736C7.71101 15.9621 7.79165 16.228 7.79165 16.4999C7.79805 16.6822 7.76687 16.8639 7.70003 17.0336C7.6332 17.2033 7.53215 17.3575 7.40317 17.4864C7.27419 17.6154 7.12004 17.7165 6.95032 17.7833C6.7806 17.8501 6.59894 17.8813 6.41665 17.8749ZM15.5833 17.8749C15.3114 17.8749 15.0455 17.7943 14.8194 17.6432C14.5933 17.4921 14.4171 17.2774 14.313 17.0261C14.2089 16.7749 14.1817 16.4984 14.2347 16.2317C14.2878 15.965 14.4187 15.72 14.611 15.5277C14.8033 15.3354 15.0483 15.2044 15.3151 15.1513C15.5818 15.0983 15.8583 15.1255 16.1095 15.2296C16.3608 15.3337 16.5755 15.5099 16.7266 15.736C16.8777 15.9621 16.9583 16.228 16.9583 16.4999C16.9647 16.6822 16.9335 16.8639 16.8667 17.0336C16.7999 17.2033 16.6988 17.3575 16.5698 17.4864C16.4409 17.6154 16.2867 17.7165 16.117 17.7833C15.9473 17.8501 15.7656 17.8813 15.5833 17.8749Z" fill="#373435"/>
</g>
<defs>
<clipPath id="clip0_2102_1471">
<rect width="22" height="22" fill="white"/>
</clipPath>
</defs>
</svg>
